<svg viewBox="0 0 96 96" xmlns="http://www.w3.org/2000/svg"><g id="Layer_1"/><g id="Layer_2"/><g id="Layer_3"/><g id="Layer_4"><path d="m58.605 10.804 18.748 19.922h-15.159c-1.979 0-3.589-1.613-3.589-3.592z"/><g><path d="m30.694 62.965h3.544l-1.775-5.722z"/><path d="m46.49 62.965h3.543l-1.774-5.722z"/><path d="m62.194 34.588c-4.112 0-7.456-3.344-7.456-7.453v-19.274h-32.278c-3.503 0-6.35 2.853-6.35 6.353v67.572c0 3.5 2.847 6.353 6.35 6.353h51.081c3.502 0 6.35-2.853 6.35-6.353v-47.198zm-10.246 34.53-.96-3.085h-5.447l-.955 3.085h-4.163-.081-4.19l-.96-3.085h-5.447l-.955 3.085h-4.244l6.045-16.491h3.737l6.054 16.381 6.005-16.381h3.737l6.094 16.491zm9.475-4.023c.442.755 1.203 1.133 2.286 1.133.911 0 1.607-.216 2.093-.647s.739-1.111.771-2.049h3.953c-.054 1.149-.361 2.163-.928 3.042-.566.879-1.364 1.564-2.384 2.044-1.025.48-2.195.728-3.505.728-2.168 0-3.877-.712-5.123-2.119-1.246-1.413-1.866-3.403-1.866-5.981v-.816c0-1.618.28-3.031.841-4.244.566-1.208 1.375-2.146 2.432-2.804 1.057-.663 2.281-.992 3.667-.992 2.001 0 3.608.529 4.827 1.58 1.213 1.052 1.904 2.502 2.071 4.352h-3.964c-.032-1.003-.281-1.726-.76-2.162-.475-.437-1.197-.652-2.173-.652-.987 0-1.715.367-2.173 1.105-.458.739-.701 1.925-.722 3.543v1.165c-.001 1.763.22 3.019.657 3.774z"/></g></g></svg>