<svg viewBox="0 0 96 96" xmlns="http://www.w3.org/2000/svg">
    <g id="Layer_1"/>
    <g id="Layer_2"/>
    <g id="Layer_3"/>
    <g id="Layer_4">
        <path d="m58.607 10.803 18.749 19.92h-15.16c-1.979 0-3.589-1.613-3.589-3.592z"/>
        <g>
            <path d="m42.185 62.09h4.05l-2.033-6.537z"/>
            <path d="m62.196 34.584c-4.112 0-7.456-3.344-7.456-7.453v-19.27h-32.283c-3.503 0-6.35 2.853-6.35 6.353v67.571c0 3.5 2.848 6.353 6.35 6.353h51.087c3.503 0 6.35-2.853 6.35-6.353v-47.201zm-13.771 34.533-1.1-3.522h-6.229l-1.084 3.522h-4.854l6.909-18.849h4.271l6.968 18.849zm10.651 0h-4.374v-14.006h4.374zm-.464-16.088c-.453.394-1.035.593-1.747.593-.717 0-1.3-.199-1.747-.593-.453-.399-.674-.906-.674-1.532 0-.62.221-1.127.674-1.526.448-.394 1.03-.593 1.747-.593.712 0 1.294.199 1.747.593.448.399.669.906.669 1.526 0 .626-.221 1.133-.669 1.532z"/>
        </g>
    </g>
</svg>