<svg viewBox="0 0 96 96" xmlns="http://www.w3.org/2000/svg"><g id="Layer_1"/><g id="Layer_2"/><g id="Layer_3"/><g id="Layer_4"><path d="m58.606 10.803 18.749 19.92h-15.16c-1.979 0-3.589-1.613-3.589-3.592z"/><g><path d="m31.119 62.963h3.544l-1.775-5.716z"/><path d="m48.669 55.693h-2.648v4.757h2.605c.771 0 1.359-.189 1.764-.577.405-.383.604-.928.604-1.629 0-.771-.21-1.386-.626-1.85-.416-.458-.982-.69-1.699-.701z"/><path d="m62.195 34.584c-4.112 0-7.456-3.344-7.456-7.453v-19.27h-32.281c-3.503 0-6.35 2.853-6.35 6.353v67.571c0 3.5 2.848 6.353 6.35 6.353h51.084c3.503 0 6.35-2.853 6.35-6.353v-47.201zm-25.618 34.533-.96-3.08h-5.447l-.955 3.08h-4.244l6.046-16.492h3.737l6.094 16.492zm16.719-7.038c-1.149.96-2.729 1.44-4.741 1.44h-2.535v5.598h-3.975v-16.492h6.58c1.262 0 2.378.232 3.349.696s1.72 1.127 2.254 1.985c.529.858.798 1.828.798 2.918.001 1.606-.576 2.889-1.73 3.855zm17.679 7.038h-4.714l-3.511-6.137-1.629 1.785v4.352h-3.975v-16.492h3.975v7.27l1.381-2.093 3.56-5.177h4.913l-5.571 7.297z"/></g></g></svg>