<svg viewBox="0 0 96 96" xmlns="http://www.w3.org/2000/svg"><g id="Layer_1"/><g id="Layer_2"/><g id="Layer_3"/><g id="Layer_4"><path d="m58.606 10.804 18.748 19.922h-15.159c-1.979 0-3.589-1.613-3.589-3.592z"/><g><path d="m35.363 62.965h3.543l-1.774-5.722z"/><path d="m62.195 34.588c-4.112 0-7.456-3.344-7.456-7.453v-19.274h-32.281c-3.503 0-6.35 2.853-6.35 6.353v67.572c0 3.5 2.847 6.353 6.35 6.353h51.083c3.503 0 6.35-2.853 6.35-6.353v-47.198zm-21.374 34.53-.96-3.085h-5.447l-.955 3.085h-4.244l6.045-16.491h3.737l6.094 16.491zm13.174 0h-4.352l-5.501-16.491h4.406l3.268 12.004 3.284-12.004h4.444zm10.98 0h-3.964v-16.491h3.964z"/></g></g></svg>