<?xml version="1.0" encoding="utf-8"?>
<!-- Generator: Adobe Illustrator 28.1.0, SVG Export Plug-In . SVG Version: 6.00 Build 0)  -->
<svg version="1.1" id="Layer_1" xmlns="http://www.w3.org/2000/svg" xmlns:xlink="http://www.w3.org/1999/xlink" x="0px" y="0px"
	 viewBox="0 0 96 96" style="enable-background:new 0 0 96 96;" xml:space="preserve">
<style type="text/css">
	.st0{fill:#FFFFFF;}
</style>
<g id="Layer_1_00000078730560816178214060000017602298904596630954_">
</g>
<g id="Layer_2_00000099624007633334273330000011945180889697916312_">
</g>
<g id="Layer_3">
</g>
<g>
	<path d="M62.2,30.73h15.16L58.6,10.8v16.33C58.6,29.11,60.22,30.73,62.2,30.73z"/>
	<path d="M62.2,34.59c-4.11,0-7.46-3.34-7.46-7.45V7.86H22.46c-3.5,0-6.35,2.85-6.35,6.35v67.57c0,3.5,2.85,6.35,6.35,6.35h51.08
		c3.5,0,6.35-2.85,6.35-6.35v-47.2H62.2z"/>
</g>
<g>
	<path class="st0" d="M31.17,64.13l-0.95,3.46h-3.15l4.11-13.48h3.99l4.2,13.48h-3.28l-1.04-3.46H31.17z M34.6,61.85l-0.84-2.87
		c-0.23-0.8-0.47-1.81-0.68-2.6h-0.04c-0.2,0.79-0.4,1.82-0.62,2.6l-0.81,2.86H34.6z"/>
	<path class="st0" d="M44.35,67.59l-4.33-13.48h3.34l1.63,5.71c0.47,1.6,0.88,3.13,1.22,4.81h0.04c0.34-1.62,0.78-3.22,1.24-4.76
		l1.71-5.76h3.24l-4.53,13.48H44.35z"/>
	<path class="st0" d="M56.94,54.11v13.48h-3.05V54.11H56.94z"/>
	<path class="st0" d="M59.59,54.11h8.24v2.5h-5.19v3.09h4.85v2.47h-4.85v5.42h-3.05V54.11z"/>
</g>
</svg>
