<svg viewBox="0 0 96 96" xmlns="http://www.w3.org/2000/svg"><g id="Layer_1"/><g id="Layer_2"/><g id="Layer_3"/><g id="Layer_4"><path d="m58.609 10.803 18.746 19.924h-15.16c-1.979 0-3.586-1.613-3.586-3.592z"/><path d="m62.195 34.588c-4.109 0-7.453-3.344-7.453-7.453v-19.274h-32.281c-3.502 0-6.353 2.853-6.353 6.353v67.572c0 3.5 2.85 6.353 6.353 6.353h51.081c3.5 0 6.35-2.853 6.35-6.353v-47.198zm-30.968 30.507c.442.755 1.203 1.133 2.287 1.133.911 0 1.607-.216 2.092-.642.485-.431.739-1.116.771-2.055h3.953c-.054 1.149-.361 2.163-.928 3.042-.566.879-1.364 1.564-2.383 2.044-1.025.485-2.195.728-3.505.728-2.168 0-3.877-.706-5.123-2.119s-1.866-3.403-1.866-5.981v-.815c0-1.618.28-3.031.841-4.239.566-1.213 1.375-2.152 2.432-2.81 1.057-.663 2.281-.992 3.667-.992 2.001 0 3.608.529 4.827 1.58 1.213 1.052 1.904 2.502 2.071 4.352h-3.963c-.033-1.003-.281-1.72-.761-2.162-.475-.437-1.197-.652-2.173-.652-.987 0-1.715.367-2.173 1.105-.458.744-.701 1.925-.723 3.548v1.165c-.001 1.759.22 3.015.657 3.77zm15.59-6.876c.453.34 1.246.696 2.389 1.062 1.138.367 2.076.76 2.81 1.181 1.78 1.03 2.669 2.443 2.669 4.25 0 1.44-.544 2.572-1.628 3.397-1.089.82-2.578 1.235-4.476 1.235-1.332 0-2.545-.243-3.629-.723-1.084-.475-1.898-1.132-2.443-1.968-.55-.836-.825-1.796-.825-2.88h3.991c0 .879.227 1.532.685 1.952.453.421 1.197.626 2.222.626.658 0 1.176-.14 1.559-.421.383-.286.572-.685.572-1.197 0-.582-.205-1.035-.615-1.359-.416-.324-1.138-.658-2.168-1.008-1.036-.345-1.882-.685-2.54-1.009-2.136-1.046-3.204-2.491-3.204-4.325 0-.911.264-1.72.798-2.416.534-.701 1.283-1.246 2.26-1.634.971-.388 2.065-.582 3.284-.582 1.186 0 2.249.21 3.187.636.938.421 1.672 1.025 2.189 1.807.523.782.782 1.672.782 2.675h-3.963c0-.669-.205-1.192-.615-1.559-.416-.372-.971-.555-1.672-.555-.712 0-1.273.156-1.683.469s-.615.712-.615 1.192c0 .426.227.809.679 1.154zm14.523 0c.453.34 1.246.696 2.389 1.062 1.138.367 2.076.76 2.81 1.181 1.78 1.03 2.669 2.443 2.669 4.25 0 1.44-.544 2.572-1.628 3.397-1.089.82-2.578 1.235-4.476 1.235-1.332 0-2.545-.243-3.629-.723-1.084-.475-1.898-1.132-2.443-1.968-.55-.836-.825-1.796-.825-2.88h3.991c0 .879.227 1.532.685 1.952.453.421 1.197.626 2.222.626.658 0 1.176-.14 1.559-.421.383-.286.572-.685.572-1.197 0-.582-.205-1.035-.615-1.359-.415-.324-1.138-.658-2.168-1.008-1.035-.345-1.882-.685-2.54-1.009-2.135-1.046-3.203-2.491-3.203-4.325 0-.911.264-1.72.798-2.416.534-.701 1.283-1.246 2.259-1.634.971-.388 2.065-.582 3.284-.582 1.187 0 2.249.21 3.188.636.938.421 1.672 1.025 2.189 1.807.523.782.782 1.672.782 2.675h-3.963c0-.669-.205-1.192-.615-1.559-.415-.372-.971-.555-1.671-.555-.712 0-1.273.156-1.683.469s-.615.712-.615 1.192c-.002.426.225.809.677 1.154z"/></g></svg>