<svg viewBox="0 0 96 96" xmlns="http://www.w3.org/2000/svg"><g id="Layer_1"/><g id="Layer_2"/><g id="Layer_3"/><g id="Layer_4"><path d="m58.606 10.804 18.748 19.922h-15.159c-1.979 0-3.589-1.613-3.589-3.592z"/><g><path d="m31.41 56.898h-1.337v10.365h1.38c1.143 0 2.017-.405 2.626-1.219.615-.809.922-2.017.922-3.619v-.712c0-1.596-.307-2.793-.922-3.602-.609-.808-1.498-1.213-2.669-1.213z"/><path d="m47.842 56.72c-1.995 0-3.047 1.494-3.16 4.481l-.011 1.213c0 1.618.264 2.858.803 3.726.534.868 1.332 1.3 2.389 1.3 1.003 0 1.774-.426 2.319-1.278s.82-2.082.83-3.678v-.76c0-1.64-.275-2.885-.825-3.732-.543-.851-1.325-1.272-2.345-1.272z"/><path d="m62.195 34.588c-4.112 0-7.456-3.344-7.456-7.453v-19.274h-32.281c-3.503 0-6.35 2.853-6.35 6.353v67.572c0 3.5 2.847 6.353 6.35 6.353h51.083c3.503 0 6.35-2.853 6.35-6.353v-47.198zm-23.143 27.838c0 1.51-.318 2.864-.955 4.061-.636 1.197-1.537 2.13-2.696 2.81-1.16.674-2.454 1.014-3.877 1.025h-5.425v-16.492h5.312c1.456 0 2.766.329 3.931.992 1.159.658 2.071 1.591 2.723 2.799.652 1.203.981 2.551.987 4.045zm16-.011c0 1.607-.297 3.031-.895 4.271-.593 1.235-1.44 2.19-2.54 2.858-1.1.669-2.351 1.003-3.753 1.003-1.407 0-2.653-.323-3.737-.971-1.089-.642-1.936-1.569-2.545-2.767-.604-1.203-.928-2.578-.955-4.136v-.927c0-1.618.297-3.042.89-4.277s1.44-2.184 2.545-2.858 2.368-1.008 3.78-1.008c1.397 0 2.642.334 3.737.998 1.095.663 1.942 1.612 2.551 2.837.609 1.229.917 2.632.922 4.217zm6.294 3.883c.442.755 1.203 1.132 2.286 1.132.911 0 1.607-.216 2.092-.642.485-.431.739-1.116.771-2.055h3.953c-.054 1.149-.361 2.163-.927 3.042s-1.365 1.564-2.384 2.044c-1.025.485-2.195.728-3.505.728-2.168 0-3.877-.707-5.123-2.119s-1.866-3.403-1.866-5.981v-.814c0-1.618.281-3.031.841-4.239.566-1.213 1.375-2.152 2.432-2.81 1.057-.663 2.281-.992 3.667-.992 2.001 0 3.608.529 4.826 1.58 1.213 1.052 1.904 2.502 2.071 4.352h-3.964c-.032-1.003-.28-1.72-.76-2.162-.474-.437-1.197-.652-2.173-.652-.987 0-1.715.367-2.173 1.105-.458.744-.701 1.925-.723 3.548v1.165c.001 1.758.222 3.015.659 3.77z"/></g></g></svg>