<svg viewBox="0 0 96 96" xmlns="http://www.w3.org/2000/svg"><g id="Layer_1"/><g id="Layer_2"/><g id="Layer_3"/><g id="Layer_4"><path d="m58.606 10.803 18.749 19.92h-15.16c-1.979 0-3.589-1.613-3.589-3.592z"/><path d="m62.195 34.584c-4.112 0-7.456-3.344-7.456-7.453v-19.27h-32.281c-3.503 0-6.35 2.853-6.35 6.353v67.571c0 3.5 2.848 6.353 6.35 6.353h51.084c3.503 0 6.35-2.853 6.35-6.353v-47.201zm-17.328 32.494c-.609.68-1.505 1.224-2.686 1.64-1.176.415-2.465.626-3.872.626-2.157 0-3.883-.663-5.172-1.985-1.294-1.321-1.985-3.16-2.076-5.512l-.011-1.435c0-1.618.286-3.036.863-4.25.572-1.208 1.391-2.146 2.465-2.794 1.068-.658 2.303-.982 3.705-.982 2.055 0 3.651.469 4.789 1.413 1.133.938 1.796 2.341 1.985 4.207h-3.829c-.135-.928-.431-1.58-.884-1.974s-1.095-.588-1.925-.588c-.992 0-1.764.421-2.308 1.267-.545.847-.82 2.055-.825 3.624v.998c0 1.645.28 2.885.841 3.705.566.831 1.451 1.24 2.659 1.24 1.03 0 1.801-.227 2.308-.69v-2.556h-2.761v-2.729h6.736v6.775zm6.547 2.039h-3.964v-16.492h3.964zm13.79-13.424h-7.054v3.791h6.412v3.063h-6.412v6.569h-3.975v-16.491h11.029z"/></g></svg>