<svg viewBox="0 0 96 96" xmlns="http://www.w3.org/2000/svg"><g id="Layer_1"/><g id="Layer_2"/><g id="Layer_3"/><g id="Layer_4"><path d="m58.605 10.803 18.751 19.924h-15.159c-1.979 0-3.592-1.613-3.592-3.592z"/><path d="m62.197 34.588c-4.112 0-7.458-3.344-7.458-7.453v-19.274h-32.279c-3.503 0-6.35 2.853-6.35 6.353v67.572c0 3.5 2.847 6.353 6.35 6.353h51.083c3.5 0 6.347-2.853 6.347-6.353v-47.198zm-28.315 33.982h-3.312v-5.776h-4.906v5.776h-3.333v-13.825h3.333v5.491h4.906v-5.491h3.313v13.825zm12.686-11.252h-4.152v11.252h-3.328v-11.252h-4.077v-2.573h11.557zm16.329 11.252h-3.343v-3.228l.325-6.61-3.343 9.838h-2.204l-3.352-9.848.324 6.62v3.228h-3.333v-13.825h4.377l3.083 9.618 3.078-9.618h4.387v13.825zm11.247 0h-9.134v-13.825h3.333v11.257h5.801z"/></g></svg>