<svg viewBox="0 0 96 96" xmlns="http://www.w3.org/2000/svg"><g id="Layer_1"/><g id="Layer_2"/><g id="Layer_3"/><g id="Layer_4"><path d="m58.608 10.807 18.745 19.92h-15.156c-1.979 0-3.589-1.613-3.589-3.592z"/><g><path d="m58.969 55.512c-1.995 0-3.047 1.494-3.16 4.487l-.011 1.208c0 1.618.264 2.858.804 3.726.534.868 1.332 1.305 2.389 1.305 1.003 0 1.774-.426 2.319-1.278.545-.857.82-2.082.83-3.683v-.76c0-1.634-.275-2.88-.825-3.732-.545-.847-1.327-1.273-2.346-1.273z"/><path d="m62.197 34.588c-4.112 0-7.456-3.344-7.456-7.453v-19.274h-32.281c-3.503 0-6.35 2.853-6.35 6.353v67.572c0 3.5 2.847 6.353 6.35 6.353h51.08c3.503 0 6.35-2.853 6.35-6.353v-47.198zm-27.965 34.525h-3.964v-16.486h3.964zm7.005-4.018c.442.755 1.203 1.133 2.287 1.133.911 0 1.607-.216 2.092-.647s.739-1.111.771-2.049h3.953c-.054 1.149-.361 2.163-.928 3.042-.566.879-1.364 1.558-2.384 2.044-1.025.48-2.195.723-3.505.723-2.168 0-3.877-.706-5.123-2.114-1.246-1.413-1.866-3.408-1.866-5.981v-.816c0-1.618.28-3.031.841-4.244.566-1.213 1.375-2.146 2.432-2.81 1.057-.658 2.281-.987 3.667-.987 2.001 0 3.608.523 4.827 1.58 1.213 1.052 1.904 2.502 2.071 4.352h-3.964c-.032-1.003-.28-1.726-.76-2.162-.475-.437-1.197-.658-2.173-.658-.987 0-1.715.372-2.173 1.111s-.701 1.92-.723 3.543v1.165c0 1.764.222 3.02.658 3.775zm24.942-3.888c0 1.612-.297 3.036-.895 4.271-.593 1.24-1.44 2.19-2.54 2.858-1.1.669-2.351 1.003-3.753 1.003-1.408 0-2.653-.323-3.737-.965-1.089-.647-1.936-1.569-2.545-2.772-.604-1.197-.928-2.578-.955-4.131v-.927c0-1.618.297-3.042.89-4.277s1.44-2.189 2.545-2.858c1.106-.674 2.367-1.008 3.78-1.008 1.397 0 2.643.329 3.737.992 1.095.669 1.941 1.612 2.551 2.837.609 1.229.917 2.637.922 4.223z"/></g></g></svg>