<svg viewBox="0 0 96 96" xmlns="http://www.w3.org/2000/svg"><g id="Layer_1"/><g id="Layer_2"/><g id="Layer_3"/><g id="Layer_4"><path d="m58.606 10.803 18.749 19.92h-15.16c-1.979 0-3.589-1.613-3.589-3.592z"/><g><path d="m62.195 34.584c-4.112 0-7.456-3.344-7.456-7.453v-19.27h-32.281c-3.503 0-6.35 2.853-6.35 6.353v67.571c0 3.5 2.848 6.353 6.35 6.353h51.084c3.503 0 6.35-2.853 6.35-6.353v-47.201zm-24.517 29.355c0 1.052-.243 1.985-.728 2.81-.491.82-1.17 1.462-2.039 1.915-.874.453-1.844.68-2.918.68-1.796 0-3.193-.453-4.19-1.359-.998-.906-1.494-2.19-1.494-3.851h3.986c0 .755.129 1.3.388 1.64.264.34.696.512 1.311.512.55 0 .976-.205 1.273-.62.297-.41.448-.987.448-1.726v-11.315h3.964v11.314zm13.752-1.86c-1.149.96-2.729 1.44-4.741 1.44h-2.535v5.598h-3.974v-16.492h6.58c1.262 0 2.378.232 3.349.696s1.72 1.127 2.254 1.985c.529.858.798 1.828.798 2.918 0 1.606-.577 2.889-1.731 3.855zm17.344 4.999c-.609.68-1.505 1.224-2.686 1.64-1.176.415-2.465.626-3.872.626-2.157 0-3.883-.663-5.172-1.985-1.294-1.321-1.985-3.16-2.076-5.512l-.011-1.429c0-1.623.286-3.042.863-4.255.572-1.208 1.391-2.141 2.465-2.794 1.068-.653 2.303-.982 3.705-.982 2.055 0 3.651.469 4.789 1.413 1.133.938 1.796 2.341 1.985 4.207h-3.829c-.135-.922-.431-1.58-.884-1.974s-1.095-.588-1.925-.588c-.992 0-1.764.421-2.308 1.267-.545.847-.82 2.055-.825 3.624v.998c0 1.645.28 2.885.841 3.711.566.825 1.451 1.24 2.659 1.24 1.03 0 1.801-.232 2.308-.69v-2.562h-2.761v-2.729h6.736v6.774z"/><path d="m46.803 55.693h-2.648v4.757h2.605c.771 0 1.359-.189 1.764-.577.405-.383.604-.928.604-1.629 0-.771-.21-1.386-.626-1.85-.416-.458-.982-.69-1.699-.701z"/></g></g></svg>