<?xml version="1.0" encoding="utf-8"?>
<!-- Generator: Adobe Illustrator 28.1.0, SVG Export Plug-In . SVG Version: 6.00 Build 0)  -->
<svg version="1.1" id="Layer_1" xmlns="http://www.w3.org/2000/svg" xmlns:xlink="http://www.w3.org/1999/xlink" x="0px" y="0px"
	 viewBox="0 0 612 792" style="enable-background:new 0 0 612 792;" xml:space="preserve">
<style type="text/css">
	.st0{fill:none;}
	.st1{fill:#FFDA8F;}
	.st2{fill:#FFC144;}
</style>
<g>
	<path class="st0" d="M282.5,489H158.34c-14.25,0-25.84-11.59-25.84-25.84V229.83c0-14.24,11.59-25.83,25.83-25.83H132"/>
	<path class="st0" d="M214.82,204c14.14,0,24.23,6.3,30.86,19.25l8.91,17.41H415c14.25,0,25.83,11.59,25.83,25.83v20h10.84
		c14.24,0,25.83,11.59,25.83,25.83v150.83c0,14.25-11.59,25.84-25.83,25.84H327.5"/>
	<path class="st1" d="M361.66,286.5h64.17v-20c0-5.97-4.86-10.83-10.83-10.83H250c-2.82,0-5.39-1.58-6.68-4.09l-11-21.5
		c-4.08-7.97-8.98-11.08-17.5-11.08h-56.49c-5.97,0-10.83,4.86-10.83,10.83v233.33c0,5.98,4.86,10.84,10.84,10.84h9.16
		c5.98,0,10.84-4.86,10.84-10.84V312.33c0-14.24,11.59-25.83,25.83-25.83h90c4.97,0.18,7.45,3.84,7.45,7.5h18.85
		c0-3.66,2.48-7.31,7.45-7.5h0.01c4.97,0.18,7.45,3.84,7.45,7.5h18.84C354.21,290.34,356.69,286.68,361.66,286.5z"/>
	<path class="st2" d="M327.92,301.5c-4.97-0.18-7.45-3.84-7.46-7.5h-18.85c0,3.66-2.48,7.31-7.45,7.5h-90
		c-5.97,0-10.83,4.86-10.83,10.83v150.83c0,3.87-0.86,7.54-2.38,10.84h260.71c5.97,0,10.83-4.86,10.83-10.84V312.33
		c0-5.97-4.86-10.83-10.83-10.83h-90c-4.97-0.18-7.45-3.84-7.45-7.5h-18.84C335.37,297.66,332.89,301.31,327.92,301.5z"/>
	<path d="M185.84,463.16V312.33c0-10.08,8.25-18.33,18.33-18.33c-10.09,0-18.33,8.25-18.34,18.33L185.84,463.16
		c0,10.09-8.25,18.34-18.34,18.34C177.59,481.5,185.84,473.25,185.84,463.16z"/>
	<path d="M185.83,463.16V312.33c0-10.08,8.25-18.33,18.34-18.33h97.45c0-3.66-2.48-7.32-7.45-7.5h-90
		c-14.25,0-25.83,11.59-25.83,25.83v150.83c0,5.98-4.86,10.84-10.84,10.84h-9.16c-5.98,0-10.84-4.86-10.84-10.84V229.83
		c0-5.97,4.86-10.83,10.83-10.83h56.49c8.52,0,13.43,3.11,17.5,11.08l11,21.5c1.28,2.51,3.86,4.09,6.68,4.09h165
		c5.97,0,10.83,4.86,10.83,10.83v20h-64.17c-4.97,0.18-7.45,3.84-7.45,7.5h79.12v-27.5c0-10.08-8.25-18.34-18.33-18.34H250
		l-10.99-21.5c-5.18-10.12-12.5-15.17-24.18-15.17h-56.49c-10.09,0-18.34,8.25-18.34,18.33v233.33c0,10.09,8.25,18.34,18.34,18.34
		h9.16C177.59,481.5,185.83,473.25,185.83,463.16z"/>
	<path d="M451.67,481.5c10.08,0,18.33-8.25,18.33-18.34V312.33c0-10.08-8.25-18.33-18.33-18.33h-18.34h-79.12
		c0,3.66,2.49,7.32,7.45,7.5h90c5.97,0,10.83,4.86,10.83,10.83v150.83c0,5.98-4.86,10.84-10.83,10.84H190.95
		c1.53-3.3,2.38-6.97,2.38-10.84V312.33c0-5.97,4.86-10.83,10.83-10.83h90c4.97-0.19,7.45-3.84,7.45-7.5h-97.45
		c-10.08,0-18.33,8.25-18.33,18.33v150.83c0,10.09-8.25,18.34-18.34,18.34H290h30H451.67z"/>
	<path d="M327.92,286.5L327.92,286.5c-4.98,0.19-7.46,3.84-7.46,7.5h14.91C335.37,290.34,332.89,286.68,327.92,286.5z"/>
	<path d="M327.92,301.5c4.97-0.19,7.45-3.84,7.45-7.5h-14.91C320.46,297.66,322.95,301.32,327.92,301.5z"/>
	<path d="M156.48,488.93H290v-7.43H167.5h-9.16c-10.08,0-18.34-8.25-18.34-18.34V229.83c0-10.08,8.25-18.33,18.34-18.33h56.49
		c11.69,0,19.01,5.05,24.18,15.17l10.99,21.5h165c10.08,0,18.33,8.25,18.33,18.34V294h18.34c10.08,0,18.33,8.25,18.33,18.33v150.83
		c0,10.09-8.25,18.34-18.33,18.34H288.84l-0.28,7.43h164.96c13.38-0.95,23.98-12.14,23.98-25.76V312.33
		c0-14.25-11.59-25.83-25.83-25.83h-10.84v-20c0-14.25-11.59-25.83-25.83-25.83H254.59l-8.91-17.41
		C239.06,210.3,228.97,204,214.82,204h-56.49c-14.24,0-25.83,11.59-25.83,25.83v233.33C132.5,476.79,143.1,487.97,156.48,488.93z"/>
</g>
</svg>
