<svg viewBox="0 0 96 96" xmlns="http://www.w3.org/2000/svg"><g id="Layer_1"/><g id="Layer_2"/><g id="Layer_3"/><g id="Layer_4"><path d="m58.605 10.804 18.748 19.922h-15.159c-1.979 0-3.589-1.613-3.589-3.592z"/><g><path d="m50.486 55.512c-1.995 0-3.047 1.499-3.16 4.487l-.011 1.208c0 1.618.264 2.858.803 3.732.534.863 1.332 1.3 2.389 1.3 1.003 0 1.774-.426 2.319-1.278s.82-2.082.831-3.678v-.766c0-1.634-.275-2.88-.825-3.732-.545-.847-1.327-1.273-2.346-1.273z"/><path d="m62.194 34.588c-4.112 0-7.456-3.344-7.456-7.453v-19.274h-32.278c-3.503 0-6.35 2.853-6.35 6.353v67.572c0 3.5 2.847 6.353 6.35 6.353h51.081c3.502 0 6.35-2.853 6.35-6.353v-47.198zm-20.984 34.525h-3.985v-3.85l.383-7.879-3.985 11.729h-2.626l-3.997-11.74.383 7.89v3.85h-3.975v-16.486h5.22l3.683 11.471 3.667-11.471h5.231v16.486zm16.486-7.906c0 1.612-.297 3.036-.895 4.271-.593 1.24-1.44 2.19-2.54 2.858-1.1.669-2.351 1.003-3.753 1.003-1.408 0-2.653-.323-3.737-.965-1.089-.642-1.936-1.569-2.545-2.766-.604-1.203-.928-2.578-.955-4.136v-.927c0-1.618.297-3.042.89-4.277s1.44-2.189 2.545-2.858c1.105-.674 2.367-1.008 3.78-1.008 1.397 0 2.643.329 3.737.998 1.095.663 1.941 1.607 2.551 2.837.609 1.229.917 2.632.922 4.217zm10.381 7.906h-4.352l-5.501-16.486h4.406l3.268 12.004 3.284-12.004h4.444z"/></g></g></svg>