<svg viewBox="0 0 96 96" xmlns="http://www.w3.org/2000/svg"><g id="Layer_1"/><g id="Layer_2"/><g id="Layer_3"/><g id="Layer_4"><path d="m58.607 10.803 18.749 19.92h-15.16c-1.979 0-3.589-1.613-3.589-3.592z"/><g><path d="m51.634 55.693h-2.648v4.757h2.605c.771 0 1.359-.189 1.763-.577.405-.383.604-.928.604-1.629 0-.771-.21-1.386-.625-1.85-.416-.458-.982-.69-1.699-.701z"/><path d="m62.196 34.584c-4.112 0-7.456-3.344-7.456-7.453v-19.27h-32.283c-3.503 0-6.351 2.853-6.351 6.353v67.571c0 3.5 2.848 6.353 6.351 6.353h51.087c3.503 0 6.35-2.853 6.35-6.353v-47.201zm-19.709 34.533h-3.985v-3.851l.383-7.885-3.986 11.736h-2.626l-3.996-11.746.383 7.896v3.851h-3.975v-16.493h5.221l3.683 11.471 3.667-11.471h5.231zm13.774-7.038c-1.149.96-2.729 1.44-4.74 1.44h-2.535v5.598h-3.975v-16.492h6.58c1.262 0 2.378.232 3.349.696s1.72 1.127 2.254 1.985c.529.858.798 1.828.798 2.918 0 1.606-.577 2.889-1.731 3.855zm13.418 5.938c-1.133.885-2.616 1.327-4.46 1.327-1.079 0-2.082-.205-3.004-.62-.928-.41-1.629-.982-2.103-1.71-.475-.728-.712-1.559-.712-2.486h3.84c0 .507.199.944.609 1.316.41.367.911.555 1.505.555.674 0 1.208-.189 1.607-.561.405-.372.604-.852.604-1.435 0-.831-.21-1.418-.625-1.764-.415-.351-.987-.523-1.72-.523h-1.855v-2.842h1.801c1.424 0 2.136-.701 2.136-2.098 0-.539-.167-.987-.507-1.327-.34-.345-.82-.518-1.44-.518-.507 0-.944.146-1.316.442-.377.297-.561.658-.561 1.1h-3.818c0-.868.243-1.645.723-2.324.485-.68 1.154-1.208 2.012-1.591.857-.383 1.801-.572 2.826-.572 1.834 0 3.279.421 4.325 1.257 1.052.841 1.575 1.99 1.575 3.457 0 .706-.216 1.381-.653 2.006-.431.631-1.063 1.143-1.893 1.537.874.318 1.564.798 2.06 1.445.496.642.744 1.44.744 2.395-.001 1.474-.562 2.649-1.7 3.534z"/></g></g></svg>