<svg viewBox="0 0 96 96" xmlns="http://www.w3.org/2000/svg"><g id="Layer_1"/><g id="Layer_2"/><g id="Layer_3"/><g id="Layer_4"><path d="m58.606 10.804 18.748 19.922h-15.159c-1.979 0-3.589-1.613-3.589-3.592z"/><g><path d="m51.636 55.696h-2.648v4.756h2.605c.771 0 1.359-.194 1.764-.577.404-.383.604-.933.604-1.634 0-.766-.21-1.381-.626-1.844-.415-.459-.982-.691-1.699-.701z"/><path d="m63.171 62.674h2.966v-5.075l-.237.383z"/><path d="m62.195 34.588c-4.112 0-7.456-3.344-7.456-7.453v-19.274h-32.281c-3.503 0-6.35 2.853-6.35 6.353v67.572c0 3.5 2.847 6.353 6.35 6.353h51.083c3.503 0 6.35-2.853 6.35-6.353v-47.198zm-19.705 34.525h-3.985v-3.85l.383-7.879-3.985 11.729h-2.626l-3.996-11.74.383 7.89v3.85h-3.974v-16.486h5.22l3.683 11.471 3.667-11.471h5.231v16.486zm13.773-7.032c-1.149.96-2.729 1.44-4.74 1.44h-2.535v5.592h-3.974v-16.486h6.579c1.262 0 2.378.232 3.349.696s1.72 1.122 2.254 1.984c.529.852.798 1.823.798 2.912 0 1.607-.577 2.896-1.731 3.862zm15.37 3.537h-1.677v3.494h-3.818v-3.494h-6.374l-.226-2.335 6.601-10.624v-.032h3.818v10.047h1.677v2.944z"/></g></g></svg>