<svg viewBox="0 0 96 96" xmlns="http://www.w3.org/2000/svg"><g id="Layer_1"/><g id="Layer_2"/><g id="Layer_3"/><g id="Layer_4"><path d="m58.605 10.804 18.748 19.922h-15.159c-1.979 0-3.589-1.613-3.589-3.592z"/><g><path d="m32.142 55.696h-2.648v4.756h2.605c.771 0 1.359-.194 1.763-.582.404-.383.604-.928.604-1.629 0-.771-.21-1.386-.626-1.844-.414-.464-.98-.696-1.698-.701z"/><path d="m62.194 34.588c-4.112 0-7.456-3.344-7.456-7.453v-19.274h-32.278c-3.503 0-6.35 2.853-6.35 6.353v67.572c0 3.5 2.847 6.353 6.35 6.353h51.08c3.503 0 6.35-2.853 6.35-6.353v-47.198zm-25.424 27.487c-1.149.965-2.729 1.44-4.74 1.44h-2.535v5.598h-3.975v-16.491h6.579c1.262 0 2.378.237 3.349.701s1.72 1.122 2.254 1.979c.529.857.798 1.828.798 2.917 0 1.607-.576 2.891-1.73 3.856zm17.618 7.038h-3.953l-5.846-10.257v10.257h-3.975v-16.491h3.975l5.835 10.263v-10.263h3.964zm16.011-2.039c-.609.679-1.505 1.229-2.686 1.639-1.176.421-2.464.625-3.872.625-2.157 0-3.883-.658-5.172-1.985-1.294-1.316-1.985-3.16-2.076-5.511l-.011-1.429c0-1.623.286-3.036.863-4.255.572-1.208 1.391-2.141 2.464-2.793 1.068-.652 2.303-.982 3.705-.982 2.055 0 3.651.475 4.789 1.413 1.132.938 1.796 2.34 1.984 4.206h-3.829c-.135-.922-.431-1.575-.884-1.974-.453-.388-1.095-.582-1.925-.582-.992 0-1.763.421-2.308 1.262-.545.852-.82 2.06-.825 3.624v1.003c0 1.639.281 2.88.841 3.705.566.825 1.451 1.24 2.659 1.24 1.03 0 1.801-.232 2.308-.69v-2.56h-2.761v-2.729h6.736z"/></g></g></svg>