<svg viewBox="0 0 96 96" xmlns="http://www.w3.org/2000/svg"><g id="Layer_1"/><g id="Layer_2"/><g id="Layer_3"/><g id="Layer_4"><path d="m58.605 10.803 18.748 19.924h-15.159c-1.979 0-3.589-1.613-3.589-3.592z"/><g><path d="m33.774 57.286h-2.648v4.757h2.604c.771 0 1.359-.194 1.764-.577.404-.388.604-.933.604-1.634 0-.771-.21-1.386-.625-1.844-.416-.459-.982-.696-1.699-.702z"/><path d="m48.868 57.286h-2.648v4.757h2.605c.771 0 1.359-.194 1.763-.577.405-.388.604-.933.604-1.634 0-.771-.21-1.386-.625-1.844-.415-.459-.982-.696-1.699-.702z"/><path d="m62.194 34.588c-4.112 0-7.456-3.344-7.456-7.453v-19.274h-32.281c-3.5 0-6.35 2.853-6.35 6.353v67.572c0 3.5 2.85 6.353 6.35 6.353h51.083c3.502 0 6.35-2.853 6.35-6.353v-47.198zm-23.793 29.078c-1.149.965-2.729 1.445-4.74 1.445h-2.535v5.592h-3.975v-16.485h6.579c1.262 0 2.378.232 3.349.696s1.72 1.122 2.254 1.979c.528.857.798 1.828.798 2.917.001 1.607-.576 2.896-1.73 3.856zm15.094 0c-1.148.965-2.729 1.445-4.74 1.445h-2.535v5.592h-3.974v-16.485h6.579c1.262 0 2.378.232 3.349.696s1.721 1.122 2.254 1.979c.528.857.798 1.828.798 2.917.001 1.607-.577 2.896-1.731 3.856zm16.794-6.38h-4.945v13.417h-3.98v-13.417h-4.854v-3.068h13.779z"/></g></g></svg>