<svg viewBox="0 0 96 96" xmlns="http://www.w3.org/2000/svg"><g id="Layer_1"/><g id="Layer_2"/><g id="Layer_3"/><g id="Layer_4"><path d="m58.605 10.804 18.748 19.922h-15.159c-1.979 0-3.589-1.613-3.589-3.592z"/><g><path d="m41.677 56.974h-2.395v4.303h2.357c.696 0 1.23-.178 1.591-.523.367-.351.55-.841.55-1.478 0-.696-.189-1.251-.561-1.666-.377-.421-.89-.631-1.542-.636z"/><path d="m28.017 56.974h-2.394v4.303h2.357c.696 0 1.229-.178 1.591-.523.367-.351.55-.841.55-1.478 0-.696-.189-1.251-.561-1.666-.378-.421-.891-.631-1.543-.636z"/><path d="m62.194 34.588c-4.112 0-7.456-3.344-7.456-7.453v-19.274h-32.278c-3.503 0-6.35 2.853-6.35 6.353v67.572c0 3.5 2.847 6.353 6.35 6.353h51.08c3.503 0 6.35-2.853 6.35-6.353v-47.198zm-29.987 28.156c-1.046.874-2.475 1.311-4.287 1.311h-2.297v5.058h-3.597v-14.917h5.954c1.138 0 2.152.21 3.025.631.879.421 1.558 1.014 2.038 1.79.485.777.723 1.656.723 2.637 0 1.457-.518 2.622-1.559 3.49zm13.66 0c-1.046.874-2.475 1.311-4.287 1.311h-2.297v5.058h-3.597v-14.917h5.954c1.138 0 2.152.21 3.025.631.879.421 1.559 1.014 2.039 1.79.485.777.723 1.656.723 2.637-.001 1.457-.519 2.622-1.56 3.49zm15.186-5.77h-4.481v12.139h-3.592v-12.139h-4.4v-2.777h12.474v2.777zm9.589 12.139-2.508-5.048-2.513 5.048h-4.136l4.271-7.518-4.163-7.399h4.099l2.443 4.956 2.438-4.956h4.109l-4.169 7.399 4.282 7.518z"/></g></g></svg>