<svg viewBox="0 0 96 96" xmlns="http://www.w3.org/2000/svg"><g id="Layer_1"/><g id="Layer_2"/><g id="Layer_3"/><g id="Layer_4"><path d="m58.606 10.804 18.748 19.922h-15.159c-1.979 0-3.589-1.613-3.589-3.592z"/><g><path d="m46.09 62.965h3.543l-1.775-5.722z"/><path d="m63.503 55.685h-2.513v4.541h2.513c.755 0 1.327-.2 1.704-.599.383-.394.572-.949.572-1.661s-.189-1.273-.577-1.672c-.383-.41-.949-.609-1.699-.609z"/><path d="m62.195 34.588c-4.112 0-7.456-3.344-7.456-7.453v-19.274h-32.281c-3.503 0-6.35 2.853-6.35 6.353v67.572c0 3.5 2.847 6.353 6.35 6.353h51.083c3.503 0 6.35-2.853 6.35-6.353v-47.198zm-22.814 34.53h-4.255l-2.912-5.835h-2.152v5.835h-3.974v-16.491h6.488c1.958 0 3.484.432 4.589 1.3 1.1.868 1.65 2.092 1.65 3.678 0 1.149-.232 2.098-.696 2.853s-1.192 1.359-2.179 1.834l3.441 6.655zm12.166 0-.96-3.085h-5.447l-.955 3.085h-4.244l6.045-16.491h3.737l6.094 16.491zm18.762 0h-4.255l-2.912-5.835h-2.152v5.835h-3.975v-16.491h6.488c1.958 0 3.484.432 4.589 1.3 1.1.868 1.65 2.092 1.65 3.678 0 1.149-.232 2.098-.696 2.853s-1.192 1.359-2.179 1.834l3.441 6.655v.171z"/><path d="m32.575 55.685h-2.513v4.541h2.513c.755 0 1.327-.2 1.704-.599.383-.394.572-.949.572-1.661s-.189-1.273-.577-1.672c-.383-.41-.949-.609-1.699-.609z"/></g></g></svg>