<svg viewBox="0 0 96 96" xmlns="http://www.w3.org/2000/svg"><g id="Layer_1"/><g id="Layer_2"/><g id="Layer_3"/><g id="Layer_4"><path d="m58.605 10.803 18.748 19.924h-15.159c-1.979 0-3.589-1.613-3.589-3.592z"/><g><path d="m30.279 55.685h-2.513v4.541h2.513c.755 0 1.327-.2 1.704-.599.383-.394.572-.949.572-1.661s-.189-1.273-.577-1.677c-.383-.405-.949-.604-1.699-.604z"/><path d="m43.793 62.965h3.544l-1.774-5.722z"/><path d="m62.194 34.588c-4.109 0-7.453-3.344-7.453-7.453v-19.274h-32.282c-3.502 0-6.353 2.853-6.353 6.353v67.572c0 3.5 2.85 6.353 6.353 6.353h51.081c3.502 0 6.353-2.853 6.353-6.353v-47.198zm-25.109 34.525h-4.255l-2.912-5.83h-2.152v5.83h-3.975v-16.486h6.488c1.958 0 3.484.432 4.589 1.3 1.1.868 1.65 2.092 1.65 3.678 0 1.143-.232 2.092-.695 2.847-.464.755-1.192 1.364-2.179 1.834l3.44 6.66v.167zm12.166 0-.96-3.079h-5.446l-.955 3.079h-4.244l6.045-16.486h3.737l6.094 16.486zm20.131 0h-4.12l-2.211-9.4-2.163 9.4h-4.109l-3.511-16.486h3.953l1.893 10.338 2.265-10.338h3.376l2.297 10.338 1.888-10.338h3.942z"/></g></g></svg>