<svg viewBox="0 0 96 96" xmlns="http://www.w3.org/2000/svg"><g id="Layer_1"/><g id="Layer_2"/><g id="Layer_3"/><g id="Layer_4"><path d="m58.606 10.804 18.748 19.922h-15.159c-1.979 0-3.589-1.613-3.589-3.592z"/><path d="m62.195 34.588c-4.112 0-7.456-3.344-7.456-7.453v-19.274h-32.281c-3.503 0-6.35 2.853-6.35 6.353v67.572c0 3.5 2.847 6.353 6.35 6.353h51.083c3.503 0 6.35-2.853 6.35-6.353v-47.198zm-31.221 23.626c.453.345 1.246.701 2.389 1.062 1.138.367 2.076.76 2.81 1.186 1.78 1.025 2.669 2.443 2.669 4.244 0 1.445-.545 2.578-1.629 3.398-1.089.825-2.578 1.235-4.476 1.235-1.332 0-2.545-.237-3.629-.717s-1.898-1.138-2.443-1.968c-.55-.836-.825-1.796-.825-2.885h3.991c0 .885.227 1.537.685 1.952.453.421 1.197.631 2.222.631.658 0 1.176-.14 1.558-.426.383-.281.572-.68.572-1.192 0-.582-.205-1.035-.615-1.359-.415-.329-1.138-.663-2.168-1.008-1.035-.351-1.882-.685-2.54-1.009-2.136-1.052-3.203-2.491-3.203-4.325 0-.917.264-1.72.798-2.421.534-.696 1.284-1.24 2.26-1.629.971-.388 2.065-.582 3.284-.582 1.186 0 2.249.21 3.187.631.938.426 1.672 1.025 2.19 1.807.523.782.782 1.677.782 2.68h-3.964c0-.674-.205-1.192-.615-1.564-.415-.372-.971-.555-1.672-.555-.712 0-1.273.156-1.683.469s-.615.712-.615 1.197c0 .42.227.803.68 1.148zm18.481 10.899h-4.352l-5.501-16.486h4.406l3.268 12.004 3.284-12.004h4.444zm20.099-2.039c-.609.679-1.505 1.229-2.686 1.645-1.176.415-2.464.62-3.872.62-2.157 0-3.883-.658-5.172-1.979-1.294-1.321-1.985-3.16-2.076-5.517l-.011-1.429c0-1.623.286-3.036.863-4.25.572-1.213 1.391-2.146 2.464-2.799 1.068-.652 2.303-.976 3.705-.976 2.055 0 3.651.469 4.789 1.408 1.132.938 1.796 2.34 1.985 4.206h-3.829c-.135-.922-.431-1.575-.884-1.968s-1.095-.588-1.925-.588c-.992 0-1.763.421-2.308 1.267s-.82 2.055-.825 3.624v.998c0 1.645.28 2.88.841 3.705.566.831 1.451 1.24 2.659 1.24 1.03 0 1.801-.226 2.308-.69v-2.556h-2.761v-2.734h6.736v6.773z"/></g></svg>