<svg viewBox="0 0 96 96" xmlns="http://www.w3.org/2000/svg"><g id="Layer_1"/><g id="Layer_2"/><g id="Layer_3"/><g id="Layer_4"><path d="m58.607 10.803 18.749 19.924h-15.159c-1.979 0-3.589-1.613-3.589-3.592v-16.332z"/><path d="m62.197 34.588c-4.109 0-7.456-3.344-7.456-7.453v-19.274h-32.282c-3.502 0-6.35 2.853-6.35 6.353v67.572c0 3.5 2.848 6.353 6.35 6.353h51.083c3.5 0 6.348-2.853 6.348-6.353v-47.198zm-21.192 21.108h-4.945v13.423h-3.98v-13.423h-4.854v-3.069h13.778v3.069zm14.804 0h-4.945v13.423h-3.98v-13.423h-4.854v-3.069h13.778v3.069zm12.705 0h-7.054v3.797h6.412v3.058h-6.412v6.568h-3.975v-16.492h11.028v3.069z"/></g></svg>