<svg viewBox="0 0 96 96" xmlns="http://www.w3.org/2000/svg"><g id="Layer_1"/><g id="Layer_2"/><g id="Layer_3"/><g id="Layer_4"><path d="m58.606 10.803 18.749 19.92h-15.16c-1.979 0-3.589-1.613-3.589-3.592z"/><path d="m62.195 34.584c-4.112 0-7.456-3.344-7.456-7.453v-19.27h-32.281c-3.503 0-6.35 2.853-6.35 6.353v67.571c0 3.5 2.847 6.353 6.35 6.353h51.084c3.503 0 6.35-2.853 6.35-6.353v-47.201zm-21.816 21.109h-4.945v13.424h-3.98v-13.424h-4.854v-3.069h13.779zm10.603 13.424-2.777-5.587-2.772 5.587h-4.579l4.725-8.316-4.601-8.176h4.53l2.697 5.485 2.697-5.485h4.541l-4.611 8.176 4.735 8.316zm18.822-13.424h-4.946v13.424h-3.98v-13.424h-4.854v-3.069h13.78z"/></g></svg>