<svg viewBox="0 0 96 96" xmlns="http://www.w3.org/2000/svg"><g id="Layer_1"/><g id="Layer_2"/><g id="Layer_3"/><g id="Layer_4"><path d="m58.605 10.803 18.751 19.924h-15.159c-1.979 0-3.592-1.613-3.592-3.592z"/><g><path d="m48.701 62.965h3.543l-1.774-5.722z"/><path d="m62.197 34.588c-4.112 0-7.456-3.344-7.456-7.453v-19.274h-32.282c-3.502 0-6.35 2.853-6.35 6.353v67.572c0 3.5 2.848 6.353 6.35 6.353h51.083c3.5 0 6.35-2.853 6.35-6.353v-47.198zm-27.053 34.53-2.211-9.405-2.163 9.405h-4.109l-3.511-16.491h3.953l1.893 10.338 2.265-10.338h3.376l2.297 10.338 1.887-10.338h3.942l-3.5 16.491zm19.015 0-.96-3.085h-5.447l-.955 3.085h-4.244l6.045-16.491h3.737l6.094 16.491zm13.169 0h-4.352l-5.501-16.491h4.406l3.269 12.004 3.284-12.004h4.443z"/></g></g></svg>