<?xml version="1.0" encoding="utf-8"?>
<!-- Generator: Adobe Illustrator 28.1.0, SVG Export Plug-In . SVG Version: 6.00 Build 0)  -->
<svg version="1.1" id="Layer_1" xmlns="http://www.w3.org/2000/svg" xmlns:xlink="http://www.w3.org/1999/xlink" x="0px" y="0px"
	 viewBox="0 0 96 96" style="enable-background:new 0 0 96 96;" xml:space="preserve">
<style type="text/css">
	.st0{fill:#FFFFFF;}
</style>
<g id="Layer_1_00000078730560816178214060000017602298904596630954_">
</g>
<g id="Layer_2_00000099624007633334273330000011945180889697916312_">
</g>
<g id="Layer_3">
</g>
<g>
	<path d="M62.2,30.73h15.16L58.6,10.8v16.33C58.6,29.11,60.22,30.73,62.2,30.73z"/>
	<path d="M62.2,34.59c-4.11,0-7.46-3.34-7.46-7.45V7.86H22.46c-3.5,0-6.35,2.85-6.35,6.35v67.57c0,3.5,2.85,6.35,6.35,6.35h51.08
		c3.5,0,6.35-2.85,6.35-6.35v-47.2H62.2z"/>
</g>
<g>
	<path class="st0" d="M26.6,67.59l-3.19-13.48h3.27l1.02,5.55c0.29,1.6,0.57,3.36,0.78,4.72h0.04c0.22-1.46,0.54-3.08,0.88-4.75
		l1.15-5.51h3.24l1.08,5.69c0.29,1.57,0.52,3.01,0.71,4.51h0.04c0.21-1.5,0.49-3.07,0.79-4.68l1.09-5.51h3.1l-3.48,13.48h-3.29
		l-1.15-5.81c-0.27-1.35-0.48-2.62-0.65-4.15H32c-0.23,1.52-0.45,2.8-0.77,4.16l-1.29,5.8H26.6z"/>
	<path class="st0" d="M50.2,61.88h-4.96v3.21h5.55v2.5h-8.59V54.11h8.31v2.5h-5.26v2.81h4.96V61.88z"/>
	<path class="st0" d="M52.87,54.29c0.8-0.16,2.41-0.29,3.93-0.29c1.86,0,3,0.18,3.99,0.76c0.94,0.5,1.61,1.42,1.61,2.66
		c0,1.19-0.7,2.3-2.21,2.87v0.05c1.54,0.4,2.68,1.58,2.68,3.3c0,1.23-0.57,2.2-1.4,2.86c-0.99,0.79-2.62,1.23-5.3,1.23
		c-1.5,0-2.61-0.1-3.29-0.2V54.29z M55.89,59.45h0.99c1.62,0,2.46-0.67,2.46-1.67c0-1.02-0.78-1.56-2.15-1.56
		c-0.67,0-1.04,0.04-1.29,0.09V59.45z M55.89,65.42c0.29,0.05,0.65,0.05,1.17,0.05c1.38,0,2.6-0.54,2.6-1.96
		c0-1.35-1.21-1.89-2.73-1.89h-1.04V65.42z"/>
	<path class="st0" d="M64.95,54.28c0.94-0.16,2.26-0.28,4.11-0.28c1.87,0,3.22,0.36,4.13,1.09c0.86,0.67,1.43,1.8,1.43,3.12
		c0,1.32-0.43,2.45-1.23,3.19c-1.04,0.98-2.59,1.43-4.38,1.43c-0.4,0-0.77-0.03-1.04-0.07v4.83h-3.02V54.28z M67.97,60.4
		c0.25,0.06,0.57,0.08,1.01,0.08c1.62,0,2.62-0.82,2.62-2.19c0-1.24-0.85-1.98-2.39-1.98c-0.6,0-1.02,0.05-1.24,0.1V60.4z"/>
</g>
</svg>
