<svg viewBox="0 0 96 96" xmlns="http://www.w3.org/2000/svg"><g id="Layer_1"/><g id="Layer_2"/><g id="Layer_3"/><g id="Layer_4"><path d="m58.606 10.803 18.748 19.918h-15.159c-1.979 0-3.589-1.613-3.589-3.592z"/><g><path d="m55.26 53.776h-1.532v11.843h1.58c1.305 0 2.303-.464 3.004-1.391.701-.928 1.046-2.308 1.046-4.136v-.814c0-1.823-.345-3.193-1.046-4.115-.701-.923-1.714-1.387-3.052-1.387z"/><path d="m62.195 34.583c-4.112 0-7.456-3.344-7.456-7.453v-19.269h-32.281c-3.503 0-6.35 2.853-6.35 6.353v67.572c0 3.5 2.847 6.353 6.35 6.353h51.083c3.503 0 6.35-2.853 6.35-6.353v-47.203zm-19.727 34.53-3.171-6.38-3.171 6.38h-5.226l5.393-9.502-5.253-9.34h5.177l3.079 6.261 3.079-6.261h5.193l-5.269 9.34 5.409 9.502zm21.528-9.022c0 1.726-.367 3.273-1.095 4.643-.728 1.364-1.758 2.438-3.079 3.209-1.327.771-2.804 1.159-4.433 1.17h-6.202v-18.843h6.072c1.661 0 3.16.378 4.487 1.132 1.332.755 2.367 1.817 3.117 3.193.744 1.38 1.122 2.923 1.132 4.627v.869z"/></g></g></svg>