<svg viewBox="0 0 96 96" xmlns="http://www.w3.org/2000/svg"><g id="Layer_1"/><g id="Layer_2"/><g id="Layer_3"/><g id="Layer_4"><path d="m58.605 10.802 18.75 19.921h-15.16c-1.979 0-3.589-1.613-3.589-3.592v-16.329z"/><path d="m62.195 34.584c-4.112 0-7.456-3.344-7.456-7.453v-19.27h-32.283c-3.5 0-6.348 2.853-6.348 6.353v67.571c0 3.5 2.848 6.353 6.348 6.353h51.086c3.503 0 6.351-2.853 6.351-6.353v-47.201zm-25.103 34.533-2.777-5.587-2.772 5.587h-4.579l4.725-8.316-4.601-8.176h4.53l2.697 5.485 2.697-5.485h4.541l-4.611 8.176 4.735 8.316zm16.773 0h-10.894v-16.492h3.975v13.434h6.919zm6.288-10.9c.453.34 1.246.696 2.389 1.063 1.138.367 2.077.76 2.81 1.187 1.78 1.025 2.669 2.438 2.669 4.244 0 1.44-.544 2.573-1.628 3.398-1.09.825-2.578 1.235-4.477 1.235-1.332 0-2.545-.237-3.629-.723-1.084-.474-1.898-1.133-2.443-1.963-.55-.841-.825-1.801-.825-2.885h3.991c0 .879.227 1.537.685 1.952.453.421 1.197.631 2.222.631.658 0 1.176-.14 1.559-.426s.572-.685.572-1.192c0-.582-.205-1.035-.615-1.359-.416-.329-1.138-.663-2.168-1.014-1.036-.345-1.882-.68-2.541-1.003-2.135-1.052-3.204-2.492-3.204-4.325 0-.917.265-1.726.798-2.421.534-.696 1.284-1.246 2.26-1.634.971-.388 2.065-.582 3.285-.582 1.187 0 2.249.216 3.187.636.938.421 1.672 1.025 2.19 1.807.523.782.782 1.677.782 2.68h-3.964c0-.674-.205-1.197-.615-1.564-.416-.372-.971-.555-1.672-.555-.712 0-1.273.156-1.683.469s-.615.712-.615 1.197c.001.419.227.802.68 1.147z"/></g></svg>