<svg viewBox="0 0 96 96" xmlns="http://www.w3.org/2000/svg"><g id="Layer_1"/><g id="Layer_2"/><g id="Layer_3"/><g id="Layer_4"><path d="m58.605 10.804 18.748 19.922h-15.159c-1.979 0-3.589-1.613-3.589-3.592z"/><path d="m62.194 34.588c-4.112 0-7.456-3.344-7.456-7.453v-19.274h-32.278c-3.503 0-6.35 2.853-6.35 6.353v67.572c0 3.5 2.847 6.353 6.35 6.353h51.08c3.503 0 6.35-2.853 6.35-6.353v-47.198zm-28.008 34.525-2.777-5.582-2.772 5.582h-4.578l4.724-8.31-4.6-8.176h4.53l2.696 5.479 2.696-5.479h4.541l-4.611 8.176 4.735 8.31zm23.68 0h-3.985v-3.85l.383-7.879-3.985 11.729h-2.626l-3.996-11.74.383 7.89v3.85h-3.975v-16.486h5.22l3.683 11.471 3.667-11.471h5.231zm13.418 0h-10.894v-16.486h3.974v13.428h6.919v3.058z"/></g></svg>