<svg viewBox="0 0 96 96" xmlns="http://www.w3.org/2000/svg"><g id="Layer_1"/><g id="Layer_2"/><g id="Layer_3"/><g id="Layer_4"><path d="m58.605 10.804 18.748 19.922h-15.159c-1.979 0-3.589-1.613-3.589-3.592z"/><g><path d="m58.764 55.696h-2.648v4.756h2.605c.771 0 1.359-.194 1.763-.582.404-.383.604-.928.604-1.629 0-.771-.21-1.386-.626-1.844-.414-.464-.981-.696-1.698-.701z"/><path d="m62.194 34.588c-4.112 0-7.456-3.344-7.456-7.453v-19.274h-32.278c-3.503 0-6.35 2.853-6.35 6.353v67.572c0 3.5 2.847 6.353 6.35 6.353h51.08c3.503 0 6.35-2.853 6.35-6.353v-47.198zm-18.853 34.525h-12.841v-2.092l7.857-11.325h-7.906v-3.074h12.809v2.039l-7.803 11.395h7.884zm6.034 0h-3.964v-16.491h3.964zm14.016-7.038c-1.149.965-2.729 1.44-4.74 1.44h-2.535v5.598h-3.974v-16.491h6.579c1.262 0 2.378.237 3.349.701s1.72 1.122 2.254 1.979c.529.857.798 1.828.798 2.917 0 1.607-.577 2.891-1.731 3.856z"/></g></g></svg>