<svg id="Layer_1" enable-background="new 0 0 511.691 511.691" height="512" viewBox="0 0 511.691 511.691" width="512" xmlns="http://www.w3.org/2000/svg"><g><g clip-rule="evenodd" fill-rule="evenodd"><path d="m95.556 145.845h305.555v-36.667c0-13.439-11-24.444-24.445-24.444h-219.998l-14.658-28.663c-6.899-13.491-16.661-20.225-32.244-20.225h-75.322c-13.444-.001-24.444 10.999-24.444 24.444v311.111c0 13.445 11.001 24.445 24.445 24.445h12.222c13.445 0 24.444-10.999 24.445-24.444v-201.113c-.001-13.444 10.999-24.444 24.444-24.444z" fill="#ffda8f"/><path d="m401.111 145.845h-305.555c-13.444 0-24.444 11-24.444 24.444v201.112c0 13.445-11 24.444-24.445 24.444h378.889c13.444 0 24.444-11 24.444-24.444v-201.112c0-13.443-10.999-24.444-24.444-24.444z" fill="#ffc144"/><circle cx="382.002" cy="355.846" fill="#cbe558" r="120"/><path d="m362.004 311.298c0-11.044 8.953-19.998 19.998-19.998 11.044 0 19.998 8.954 19.998 19.998v24.55h24.55c11.044 0 19.998 8.954 19.998 19.998s-8.954 19.998-19.998 19.998h-24.55v24.55c0 11.044-8.953 19.998-19.998 19.998-11.044 0-19.998-8.953-19.998-19.998v-24.55h-24.55c-11.044 0-19.998-8.953-19.998-19.998 0-11.044 8.954-19.998 19.998-19.998h24.55z" fill="#fff"/></g><g><path d="m460 251.906v-81.616c0-18.992-15.452-34.444-34.444-34.444h-14.445v-26.667c0-18.992-15.452-34.444-34.445-34.444h-213.88l-11.873-23.216c-8.834-17.275-22.294-25.673-41.147-25.673h-75.322c-18.992-.001-34.444 15.452-34.444 34.444v311.111c0 18.992 15.452 34.444 34.444 34.444h227.557c19.63 46.937 66.026 80 120.001 80 124.854-.27 176.716-160.28 77.998-233.939zm-382.066 133.939c2.039-4.396 3.177-9.289 3.177-14.444v-201.111c0-7.965 6.48-14.444 14.444-14.444h120.005c13.254-.492 13.244-19.513 0-20h-120.004c-18.993 0-34.444 15.452-34.444 34.444v201.111c0 7.965-6.48 14.444-14.445 14.444h-12.223c-7.964 0-14.444-6.479-14.444-14.444v-311.111c0-7.965 6.48-14.444 14.444-14.444h75.321c11.358 0 17.902 4.144 23.341 14.778l14.658 28.663c1.709 3.344 5.148 5.447 8.903 5.447h219.998c7.965 0 14.445 6.479 14.445 14.444v26.667h-85.55c-13.254.492-13.244 19.513 0 20h119.996c7.964 0 14.444 6.479 14.444 14.444v69.225c-97.448-49.243-210.169 39.898-184.505 146.331zm304.068 80c-60.654 0-110-49.346-110-110 5.53-145.729 214.493-145.69 220.001.001-.001 60.654-49.347 109.999-110.001 109.999z"/><path d="m260.563 155.845c13.254-.492 13.244-19.513 0-20h-.007c-13.254.494-13.236 19.515.007 20z"/><path d="m426.549 325.847h-14.549v-14.55c-1.513-39.752-58.497-39.722-59.996 0v14.55h-14.55c-39.752 1.513-39.722 58.498 0 59.996h14.55v14.55c1.513 39.752 58.497 39.722 59.996 0v-14.55h14.55c39.751-1.512 39.721-58.497-.001-59.996zm0 39.996h-24.55c-5.523 0-10 4.478-10 10v24.55c-.504 13.249-19.496 13.239-19.996 0v-24.55c0-2.652-1.053-5.195-2.929-7.071-1.875-1.875-4.419-2.929-7.071-2.929h-24.55c-13.249-.505-13.239-19.496 0-19.996h24.55c5.523 0 10-4.478 10-10v-24.55c.504-13.249 19.496-13.239 19.996 0v24.55c0 5.522 4.477 10 10 10h24.55c13.249.505 13.239 19.497 0 19.996z"/></g></g></svg>