<svg id="Layer_1" enable-background="new 0 0 512.002 512.002" height="512" viewBox="0 0 512.002 512.002" width="512"
     xmlns="http://www.w3.org/2000/svg">
    <g>
        <g clip-rule="evenodd" fill-rule="evenodd">
            <path d="m70 116h220v-5-15c0-10.989-9-20-20-20h-139.998l-11.993-23.452c-5.645-11.038-13.632-16.548-26.382-16.548h-61.627c-11 0-20 9-20 20v240c0 11 9.012 20 20 20 11 0 20-9 20-20v-160c.001-11 9-20 20-20z"
                  fill="#ffda8f"/>
            <path d="m290 116h-220c-11 0-20 9-20 20v160c0 11-9 20-20 20h280c10.988 0 20-9.011 20-20v-160c0-10.988-9-20-20-20z"
                  fill="#ffc144"/>
            <path d="m430.161 76-58.159 49.696 58.159 49.696v-24.03c28.772 0 53.701 3.876 71.841 35.296 0-60.777-31.297-86.627-71.841-86.627z"
                  fill="#cbe558"/>
            <path d="m140 426.305-58.159-49.696v24.03c-28.773 0-53.701-3.876-71.841-35.296 0 60.776 31.297 86.627 71.841 86.627v24.03z"
                  fill="#ff5d7d"/>
            <path d="m242.002 276.001h220v-5-15c0-10.989-9-20-20-20h-139.999l-11.993-23.452c-5.645-11.038-13.632-16.548-26.382-16.548h-61.627c-11 0-20 9-20 20v239.999c0 11 9.012 20 20 20 11 0 20-9 20-20v-160c.001-10.999 9-19.999 20.001-19.999z"
                  fill="#ffda8f"/>
            <path d="m462.002 276.001h-220c-11 0-20 9-20 20v160c0 11-9 20-20 20h280c10.988 0 20-9.011 20-20v-160c0-10.988-9-20-20-20z"
                  fill="#ffc144"/>
        </g>
        <g>
            <path d="m482.002 266.001h-10v-10c0-16.542-13.458-30-30.001-30h-102v-90.001c0-16.542-13.458-30-30-30h-10.001v-10c0-16.542-13.458-30-30-30h-133.88l-9.208-18.005c-7.569-14.8-19.111-21.994-35.285-21.994h-61.627c-16.542 0-30 13.458-30 30v239.999c0 16.537 13.448 29.992 29.983 30h142.018v130.001c0 16.537 13.449 29.992 29.984 30h280.017c16.542 0 30-13.458 30-30v-160c0-16.542-13.458-30-30-30zm-423.715 39.999c1.109-3.129 1.714-6.495 1.714-10v-160c0-5.514 4.485-10 9.999-10h74.997c13.254-.492 13.244-19.512 0-20h-74.997c-16.541 0-29.999 13.458-29.999 30v159.999c-.506 13.252-19.5 13.243-20.001.001v-239.999c0-5.514 4.486-10 10-10h61.627c8.603 0 13.34 3.009 17.479 11.102l11.993 23.45c1.71 3.344 5.148 5.447 8.903 5.447h139.998c5.514 0 10 4.486 10 10v10h-45.003c-13.254.492-13.244 19.512 0 20h75.004c5.514 0 10 4.486 10 10v90.001h-11.88l-9.208-18.005c-7.568-14.801-19.11-21.995-35.285-21.995h-61.627c-16.542 0-30 13.458-30 30v89.999zm153.715-9.999v159.999c-.506 13.253-19.501 13.242-20.001.001v-240c0-5.514 4.486-10 10-10h61.627c8.604 0 13.34 3.009 17.479 11.101l11.993 23.452c1.71 3.344 5.148 5.447 8.903 5.447h139.998c5.515 0 10.001 4.486 10.001 10v10h-210c-16.542 0-30 13.458-30 30zm280 160c0 5.421-4.579 10-10 10h-251.714c1.109-3.129 1.714-6.495 1.714-10v-160c0-5.514 4.486-10 10-10h240c5.514 0 10 4.486 10 10z"/>
            <path d="m146.496 418.702-58.158-49.695c-2.967-2.535-7.138-3.112-10.682-1.479-3.544 1.634-5.814 5.18-5.814 9.082v13.804c-24-1.192-40.203-7.592-53.182-30.07-5.125-8.78-18.613-5.176-18.66 5 0 56.458 26.643 91.686 71.842 96.146v14.512c0 3.902 2.271 7.448 5.814 9.082 3.521 1.626 7.706 1.066 10.682-1.479l58.158-49.696c4.627-3.77 4.627-11.439 0-15.207zm-54.654 35.6v-2.331c0-5.522-4.478-10-10-10-30.732 0-50.824-16.16-58.424-46.189 18.218 13.357 39.199 14.857 58.424 14.857 5.522 0 10-4.478 10-10v-2.331l32.765 27.997z"/>
            <path d="m365.506 133.299 58.158 49.696c2.966 2.535 7.136 3.112 10.682 1.479 3.544-1.634 5.814-5.18 5.814-9.082v-13.805c24 1.192 40.203 7.592 53.182 30.07 2.258 3.943 6.961 5.83 11.248 4.659 4.372-1.171 7.412-5.133 7.412-9.659 0-56.458-26.643-91.687-71.842-96.146v-14.511c0-3.902-2.271-7.448-5.814-9.082-3.544-1.632-7.715-1.056-10.682 1.479l-58.158 49.696c-4.627 3.769-4.627 11.437 0 15.206zm54.654-35.6v2.331c0 5.522 4.478 10 10 10 30.732 0 50.824 16.16 58.424 46.189-18.218-13.357-39.199-14.857-58.424-14.857-5.522 0-10 4.478-10 10v2.331l-32.765-27.997z"/>
            <path d="m190.001 126c13.254-.492 13.244-19.512 0-20h-.008c-13.254.494-13.235 19.514.008 20z"/>
        </g>
    </g>
</svg>